ffmpeg version 3.4.6-0ubuntu0.18.04.1 Copyright (c) 2000-2019 the FFmpeg developers
  built with gcc 7 (Ubuntu 7.3.0-16ubuntu3)
  configuration: --prefix=/usr --extra-version=0ubuntu0.18.04.1 --toolchain=hardened --libdir=/usr/lib/x86_64-linux-gnu --incdir=/usr/include/x86_64-linux-gnu --enable-gpl --disable-stripping --enable-avresample --enable-avisynth --enable-gnutls --enable-ladspa --enable-libass --enable-libbluray --enable-libbs2b --enable-libcaca --enable-libcdio --enable-libflite --enable-libfontconfig --enable-libfreetype --enable-libfribidi --enable-libgme --enable-libgsm --enable-libmp3lame --enable-libmysofa --enable-libopenjpeg --enable-libopenmpt --enable-libopus --enable-libpulse --enable-librubberband --enable-librsvg --enable-libshine --enable-libsnappy --enable-libsoxr --enable-libspeex --enable-libssh --enable-libtheora --enable-libtwolame --enable-libvorbis --enable-libvpx --enable-libwavpack --enable-libwebp --enable-libx265 --enable-libxml2 --enable-libxvid --enable-libzmq --enable-libzvbi --enable-omx --enable-openal --enable-opengl --enable-sdl2 --enable-libdc1394 --enable-libdrm --enable-libiec61883 --enable-chromaprint --enable-frei0r --enable-libopencv --enable-libx264 --enable-shared
  libavutil      55. 78.100 / 55. 78.100
  libavcodec     57.107.100 / 57.107.100
  libavformat    57. 83.100 / 57. 83.100
  libavdevice    57. 10.100 / 57. 10.100
  libavfilter     6.107.100 /  6.107.100
  libavresample   3.  7.  0 /  3.  7.  0
  libswscale      4.  8.100 /  4.  8.100
  libswresample   2.  9.100 /  2.  9.100
  libpostproc    54.  7.100 / 54.  7.100
Input #0, image2pipe, from 'pipe:':
  Duration: N/A, bitrate: N/A
    Stream #0:0: Video: ppm, rgb24, 320x240, 20 fps, 20 tbr, 20 tbn, 20 tbc
Stream mapping:
  Stream #0:0 -> #0:0 (ppm (native) -> h264 (libx264))
[libx264 @ 0x55da91aca260] using cpu capabilities: MMX2 SSE2Fast SSSE3 SSE4.2 AVX FMA3 BMI2 AVX2
[libx264 @ 0x55da91aca260] profile High, level 1.3
[libx264 @ 0x55da91aca260] 264 - core 152 r2854 e9a5903 - H.264/MPEG-4 AVC codec - Copyleft 2003-2017 - http://www.videolan.org/x264.html - options: cabac=1 ref=3 deblock=1:0:0 analyse=0x3:0x113 me=hex subme=7 psy=1 psy_rd=1.00:0.00 mixed_ref=1 me_range=16 chroma_me=1 trellis=1 8x8dct=1 cqm=0 deadzone=21,11 fast_pskip=1 chroma_qp_offset=-2 threads=1 lookahead_threads=1 sliced_threads=0 nr=0 decimate=1 interlaced=0 bluray_compat=0 constrained_intra=0 bframes=3 b_pyramid=2 b_adapt=1 b_bias=0 direct=1 weightb=1 open_gop=0 weightp=2 keyint=250 keyint_min=20 scenecut=40 intra_refresh=0 rc_lookahead=40 rc=abr mbtree=1 bitrate=400 ratetol=1.0 qcomp=0.60 qpmin=0 qpmax=69 qpstep=4 ip_ratio=1.40 aq=1:1.00
Output #0, mp4, to './mission_records/2826697e-fb72-4a5c-aa58-61e15ffb7d41/video.mp4':
  Metadata:
    encoder         : Lavf57.83.100
    Stream #0:0: Video: h264 (libx264) (avc1 / 0x31637661), yuv420p, 320x240, q=-1--1, 400 kb/s, 20 fps, 10240 tbn, 20 tbc
    Metadata:
      encoder         : Lavc57.107.100 libx264
    Side data:
      cpb: bitrate max/min/avg: 0/0/400000 buffer size: 0 vbv_delay: -1
frame=   10 fps=0.0 q=21.0 Lsize=      13kB time=00:00:00.35 bitrate= 306.3kbits/s speed=1.77x    
video:12kB audio:0kB subtitle:0kB other streams:0kB global headers:0kB muxing overhead: 7.592905%
[libx264 @ 0x55da91aca260] frame I:1     Avg QP:23.16  size:  1550
[libx264 @ 0x55da91aca260] frame P:3     Avg QP:18.85  size:  2104
[libx264 @ 0x55da91aca260] frame B:6     Avg QP:22.11  size:   649
[libx264 @ 0x55da91aca260] consecutive B-frames: 10.0% 20.0% 30.0% 40.0%
[libx264 @ 0x55da91aca260] mb I  I16..4: 47.7% 47.0%  5.3%
[libx264 @ 0x55da91aca260] mb P  I16..4:  8.7% 23.4% 10.7%  P16..4: 29.7% 11.7%  5.0%  0.0%  0.0%    skip:10.9%
[libx264 @ 0x55da91aca260] mb B  I16..4:  1.0%  1.3%  0.6%  B16..8: 35.9%  9.9%  1.7%  direct: 2.4%  skip:47.1%  L0:42.4% L1:55.6% BI: 2.0%
[libx264 @ 0x55da91aca260] final ratefactor: 15.19
[libx264 @ 0x55da91aca260] 8x8 transform intra:51.0% inter:60.0%
[libx264 @ 0x55da91aca260] coded y,uvDC,uvAC intra: 39.6% 47.9% 14.7% inter: 9.5% 13.4% 1.8%
[libx264 @ 0x55da91aca260] i16 v,h,dc,p:  5% 46%  3% 46%
[libx264 @ 0x55da91aca260] i8 v,h,dc,ddl,ddr,vr,hd,vl,hu:  9% 31% 22%  5%  5%  3% 13%  3%  9%
[libx264 @ 0x55da91aca260] i4 v,h,dc,ddl,ddr,vr,hd,vl,hu: 31% 26% 19%  4%  5%  2%  7%  1%  4%
[libx264 @ 0x55da91aca260] i8c dc,h,v,p: 52% 29%  6% 13%
[libx264 @ 0x55da91aca260] Weighted P-Frames: Y:0.0% UV:0.0%
[libx264 @ 0x55da91aca260] ref P L0: 74.5%  1.2% 20.6%  3.7%
[libx264 @ 0x55da91aca260] ref B L0: 91.9%  8.1%
[libx264 @ 0x55da91aca260] ref B L1: 87.0% 13.0%
[libx264 @ 0x55da91aca260] kb/s:188.08
